<svg width="1124" height="630" viewBox="0 0 1124 630" fill="none" xmlns="http://www.w3.org/2000/svg">
<g clip-path="url(#clip0_515_306)">
<rect width="1124" height="630" fill="#4DB35E"/>
<rect x="359" y="283" width="379" height="235" rx="8" fill="#0A1A29"/>
<path d="M360.002 527.998L733.501 131.998L1117 629.5L440.719 629.5L360.002 527.998Z" fill="#3D8F4B"/>
<rect x="385" y="130" width="351" height="234" rx="8" fill="#DDDDDD"/>
<rect x="401" y="146" width="351" height="234" rx="8" fill="white"/>
<rect x="359" y="315" width="406" height="217" rx="8" fill="#1F4E7A"/>
<rect x="543" y="362" width="38" height="81" fill="#0A1A29"/>
<path d="M522 443H602L562 486.5L522 443Z" fill="#0A1A29"/>
<rect x="435" y="263" width="209" height="13" fill="#D9D9D9"/>
<rect x="435" y="286" width="242" height="13" fill="#D9D9D9"/>
<path d="M452.609 230.56C456.865 230.56 460.393 229.328 462.801 226.92C465.153 224.568 466.497 221.096 466.497 216.448V190.8H457.649V216.056C457.649 220.592 455.633 222.552 452.385 222.552C449.641 222.552 447.457 221.096 445.217 218.632L439.785 224.68C442.473 227.872 446.505 230.56 452.609 230.56Z" fill="#143452"/>
<path d="M475.315 230H483.939V218.24H490.491C499.283 218.24 506.339 213.536 506.339 204.464V204.352C506.339 196.344 500.683 190.8 491.331 190.8H475.315V230ZM483.939 210.568V198.584H490.603C494.915 198.584 497.603 200.656 497.603 204.52V204.632C497.603 207.992 495.083 210.568 490.771 210.568H483.939Z" fill="#143452"/>
<path d="M531.593 230.672C538.761 230.672 544.305 227.872 548.337 224.456V207.432H531.313V214.88H539.993V220.48C537.809 222.048 535.009 222.832 531.873 222.832C524.929 222.832 520.001 217.568 520.001 210.4V210.288C520.001 203.624 524.985 198.08 531.257 198.08C535.793 198.08 538.481 199.536 541.505 202.056L546.937 195.504C542.849 192.032 538.593 190.128 531.537 190.128C519.665 190.128 510.985 199.256 510.985 210.4V210.512C510.985 222.104 519.385 230.672 531.593 230.672Z" fill="#143452"/>
</g>
<defs>
<clipPath id="clip0_515_306">
<rect width="1124" height="630" fill="white"/>
</clipPath>
</defs>
</svg>
