<svg width="562" height="315" xmlns="http://www.w3.org/2000/svg">
  <g fill="none" fill-rule="evenodd">
    <path fill="#231F20" d="M0 315h562V0H0z"/>
    <path fill="#00A2D9" d="M286.2 135l-15.7-6.2 6.3-15.7 15.7 6.2-6.3 15.7"/>
    <path fill="#B7295A" d="M346.3 98.1l-4.7 16.2 16.8-3.9-12.1-12.3"/>
    <path d="M306 94.5a8.4 8.4 0 1016.8 0 8.4 8.4 0 00-16.9 0" fill="#F2AF00"/>
    <path fill="#00A2D9" d="M315.5 125l-15.6-6.4 6.3-15.6 15.6 6.3-6.3 15.6"/>
    <path fill="#B7295A" d="M322.6 112.6l-4.4 16.3 16.8-4.1-12.4-12.2"/>
    <path d="M291.4 129.2a8.4 8.4 0 1017 0 8.4 8.4 0 00-17 0" fill="#F2AF00"/>
    <path fill="#00A2D9" d="M329.9 116.4l-10.6-13.1 13.1-10.6 10.6 13.1-13.1 10.6"/>
    <path fill="#B7295A" d="M349.1 117.4h-16.9l8.5 15 8.4-15"/>
    <path d="M350.2 120.8a8.4 8.4 0 1017 0 8.4 8.4 0 00-17 0" fill="#F2AF00"/>
    <path fill="#00A2D9" d="M246 95.5l12.7 11.2-11.2 12.6-12.7-11.2 11.3-12.6"/>
    <path fill="#B7295A" d="M203.1 135.2l10-13.6-17.2-2 7.2 15.6"/>
    <path fill="#00A2D9" d="M244.6 121.4l12.5 11.3-11.3 12.5-12.5-11.3 11.3-12.5"/>
    <path fill="#B7295A" d="M233.7 130.5l9.7-13.8-17.1-1.8 7.4 15.6"/>
    <path d="M268.7 125.6a8.4 8.4 0 10-15.9-5.8 8.4 8.4 0 0015.9 5.8" fill="#F2AF00"/>
    <path fill="#00A2D9" d="M208.2 95.5l10.6 13.2-13.2 10.5-10.5-13.1 13.1-10.6"/>
    <path fill="#B7295A" d="M211 116.5l14 9.5 1.5-17.2-15.5 7.7"/>
    <path d="M300.4 111.8a8.4 8.4 0 10-15.9-5.7 8.4 8.4 0 0015.9 5.7" fill="#F2AF00"/>
    <path fill="#00A2D9" d="M250.3 88.2l-13 10.8-10.8-13 13-10.8 10.8 13"/>
    <path fill="#B7295A" d="M291.2 83.9l8.3 14.7 9-14.7h-17.3"/>
    <path d="M332.2 87a8.4 8.4 0 1017 0 8.4 8.4 0 00-17 0" fill="#F2AF00"/>
    <path fill="#00A2D9" d="M283 104.5l-13.3-10.2 10.2-13.4 13.4 10.3-10.2 13.3"/>
    <path fill="#B7295A" d="M268.3 116l14.2-9-15.2-8.2 1 17.2"/>
    <path d="M250.2 80.9a8.4 8.4 0 1017 0 8.4 8.4 0 00-17 0" fill="#F2AF00"/>
    <path fill="#00A2D9" d="M328 88.2l-16-5.6 5.7-16 15.9 5.7-5.7 16"/>
    <path fill="#B7295A" d="M269.2 91.2h-16.9l8.5 15.1 8.4-15"/>
    <path d="M216 99a8.4 8.4 0 1016.9 0 8.4 8.4 0 00-16.9 0" fill="#F2AF00"/>
    <path fill="#00A2D9" d="M258.7 68.7L243.1 75l-6.3-15.7 15.6-6.3 6.3 15.7"/>
    <path fill="#B7295A" d="M308.3 53.6l3.4 16.5 13-11.3-16.4-5.2"/>
    <path d="M256.2 55.6a8.4 8.4 0 1016.9 0 8.4 8.4 0 00-17 0" fill="#F2AF00"/>
    <path fill="#00A2D9" d="M277.7 53l-11.6-12.2 12.2-11.6L290 41.4 277.7 53"/>
    <path fill="#B7295A" d="M221.3 81.1l-16.8.3 8.7 15 8.1-15.3"/>
    <path d="M219.4 72.4a8.4 8.4 0 1016.8 0 8.4 8.4 0 00-16.8 0" fill="#F2AF00"/>
    <path fill="#00A2D9" d="M285.5 72.4L275 59.3l13.2-10.6L298.7 62l-13.2 10.5"/>
    <path fill="#B7295A" d="M281.5 70h-16.9l8.5 15 8.4-15"/>
    <path d="M292.5 73.7a8.4 8.4 0 1016.8 0 8.4 8.4 0 00-16.8 0M291.4 47.1a8.4 8.4 0 1017 0 8.4 8.4 0 00-17 0" fill="#F2AF00"/>
    <path fill="#EDE6CE" d="M257 167.5l-31.8 31.8-31.8-31.8 31.8-31.9 31.9 31.9"/>
    <path fill="#EDE6CE" d="M313.3 167.5l-31.8 31.8-31.8-31.8 31.8-31.9 31.8 31.9"/>
    <path fill="#EDE6CE" d="M369.6 167.5l-31.9 31.8-31.8-31.8 31.9-31.9 31.8 31.9"/>
    <path fill="#231F20" d="M193.4 127.4h176.2v-1.9H193.4z"/>
    <path fill="#EDE6CE" d="M216.8 215.3h16.9V180h-16.9zM273 215.3h17V180h-17zM329.3 215.3h16.9V180h-16.9z"/>
    <path fill="#00A2D9" d="M216.8 239.5h16.9v-17h-16.9z"/>
    <path fill="#B7295A" d="M346.2 224.4h-16.9l8.4 15 8.5-15"/>
    <path d="M273 231a8.4 8.4 0 1017 0 8.4 8.4 0 00-17 0" fill="#F2AF00"/>
    <path fill="#00A2D9" d="M216.8 262h16.9v-17h-16.9z"/>
    <path fill="#B7295A" d="M346.2 246.9h-16.9l8.4 15 8.5-15"/>
    <path d="M273 253.5a8.4 8.4 0 1017 0 8.4 8.4 0 00-17 0" fill="#F2AF00"/>
    <path fill="#00A2D9" d="M216.8 284.5h16.9v-17h-16.9z"/>
    <path fill="#B7295A" d="M346.2 269.4h-16.9l8.4 15 8.5-15"/>
    <path d="M273 276a8.4 8.4 0 1017 0 8.4 8.4 0 00-17 0" fill="#F2AF00"/>
    <path fill="#EDE6CE" d="M193.4 167.5h176.2v-40.1H193.4z"/>
    <path fill="#231F20" d="M193.4 140.9h176.3V139H193.4zM193.4 144.5h176.2v-1.8H193.4z"/>
    <path fill="#00A2D9" d="M193 142.8h58.9V141H193z"/>
    <path fill="#F2AF00" d="M252 142.8h58.9V141H252z"/>
    <path fill="#B7295A" d="M310.9 142.7h58.8v-1.8H311z"/>
  </g>
</svg>
