<svg xmlns="http://www.w3.org/2000/svg" xmlns:xlink="http://www.w3.org/1999/xlink" viewBox="0 0 1124 630">
  <defs>
    <linearGradient id="a" x1="574" y1="195.2" x2="569" y2="186.6" gradientTransform="translate(.9)" gradientUnits="userSpaceOnUse">
      <stop offset="0" stop-color="#3e4763"/>
      <stop offset=".5" stop-color="#7e87a8"/>
      <stop offset="1" stop-color="#626c8c"/>
    </linearGradient>
    <linearGradient id="b" x1="570.9" y1="194.2" x2="568.3" y2="189.8" xlink:href="#a"/>
    <linearGradient id="c" x1="568.4" y1="194.8" x2="566.6" y2="191.7" xlink:href="#a"/>
    <linearGradient id="d" x1="681" y1="257" x2="676" y2="248.4" xlink:href="#a"/>
    <linearGradient id="e" x1="677.8" y1="256" x2="675.3" y2="251.6" xlink:href="#a"/>
    <linearGradient id="f" x1="675.4" y1="256.5" x2="673.6" y2="253.5" xlink:href="#a"/>
    <linearGradient id="g" x1="787.9" y1="318.8" x2="783" y2="310.2" xlink:href="#a"/>
    <linearGradient id="h" x1="784.8" y1="317.8" x2="782.3" y2="313.4" xlink:href="#a"/>
    <linearGradient id="i" x1="782.4" y1="318.3" x2="780.6" y2="315.2" xlink:href="#a"/>
  </defs>
  <path fill="#0ca1dc" d="M0 0h1124v630H0z"/>
  <path fill="#56c0dd" d="M800.9 402.5L731 362.2l-125.5 72.5-37.2-21.5 125.6-72.4-69.9-40.4-125.6 72.4-37-21.3L587 279l-69.9-40.4-195.4 112.9 106.8 61.6L52.1 630H192l306.3-176.5 107.2 61.8 195.4-112.8z"/>
  <path fill="#3e4763" d="M517.1 238.6V60.9l69.8 40.4v177.8l-69.8-40.5z"/>
  <path fill="#f3b11c" d="M581.8 273.5l-57.7-32.9.4-169 57.3 33.1v168.8z"/>
  <path fill="#f3b11c" d="M581.8 107.2l-57.7-32.8.4-2.8 57.3 33.1v2.5z"/>
  <path fill="#56c0dd" d="M524.5 240.4l57.3 33.1v2.7L522 241.7l2.5-1.3z"/>
  <path fill="#626c8c" d="M591.6 276.3l-4.7 2.8V101.3l4.7-2.7v177.7z"/>
  <path fill="#7e87a8" d="M591.6 98.6l-4.7 2.7-69.8-40.4 4.7-2.7 69.8 40.4z"/>
  <path fill="#626c8c" d="M524.5 240.4l-2.4 1.2V70.2l2.4 1.4v168.8z"/>
  <path d="M574 195.3c0 2.2-1.6 3.1-3.5 2a7.7 7.7 0 01-3.5-6.1c0-2.2 1.6-3.1 3.5-2a7.7 7.7 0 013.5 6.1z" fill="#d42451"/>
  <path d="M575.4 193.2a7.7 7.7 0 00-3.5-6.1 2.5 2.5 0 00-2.5-.3l-1.4.8 5.1 8.5 1.1-.6a2.4 2.4 0 001.2-2.3z" fill="url(#a)"/>
  <path d="M574.4 193.8c0 2.2-1.6 3.1-3.5 2a7.7 7.7 0 01-3.5-6.1c0-2.2 1.6-3.1 3.5-2a7.7 7.7 0 013.5 6.1z" fill="#aab2cf"/>
  <path d="M574.1 194c0 2.2-1.6 3.1-3.5 2a7.7 7.7 0 01-3.5-6.1c0-2.2 1.6-3.1 3.5-2a7.7 7.7 0 013.5 6.1z" fill="#3e4763"/>
  <path d="M572.1 193.2a3.9 3.9 0 00-1.8-3.1 1.3 1.3 0 00-1.2-.1l-.8.8 2.3 3.8.9-.2a1.2 1.2 0 00.6-1.2z" fill="url(#b)"/>
  <path d="M571.2 193.4a1 1 0 01-1.6.9 3.6 3.6 0 01-1.7-2.7 1 1 0 011.7-.9 3.5 3.5 0 011.6 2.7z" fill="#aab2cf"/>
  <path d="M571 193.5a1 1 0 01-1.6.9 3.5 3.5 0 01-1.6-2.7 1 1 0 011.6-.9 3.5 3.5 0 011.6 2.7z" fill="#3e4763"/>
  <path d="M570.5 193.4a2.8 2.8 0 00-1.2-2.2.9.9 0 00-.9-.1l-2.5 1.5 1.9 3 2.3-1.4a.8.8 0 00.4-.8z" fill="url(#c)"/>
  <path d="M568.2 194.8a.8.8 0 01-1.2.7 2.8 2.8 0 01-1.2-2.2.8.8 0 011.2-.7 2.8 2.8 0 011.2 2.2zM558.2 190.8c2.4-1.4 2.2-2.5 4.6-3.9a2.1 2.1 0 00-.6-.6 1 1 0 00-.8.1l-2.5 1.4c-1.7 1.1-.7 3-.7 3z" fill="#7e87a8"/>
  <path d="M558.8 191.4l3.2-1.9c1.5-.9 1.5-3.4 0-2.6l-3.3 1.8c-1.5.9.1 2.7.1 2.7z" fill="#626c8c"/>
  <path d="M567.2 192.8l-7-4a.4.4 0 01.1-.8l1.7-1s.6-.3.2-.6a1.1 1.1 0 00-1 .2l-2 1.2a.7.7 0 00-.3 1.2 2.2 2.2 0 001 2.3c2.3 1.3 7.2 4.8 7.2 4.8l.9-.4c.6-.5.3-2.2-.8-2.9z" fill="#7e87a8"/>
  <path d="M566.3 195.8l-7.3-4.2c-1.7-1-1-3.4-.3-2.9l7.6 4.6c1.5.8 1.5 3.4 0 2.5z" fill="#3e4763"/>
  <path d="M566.3 195.6h-.5a28.4 28.4 0 01-2.7-2.2.2.2 0 01.2-.4l2.2.3.5.2a2 2 0 01.9 1.6.7.7 0 01-.6.5z" fill="#626c8c"/>
  <path d="M566.7 194.8a.5.5 0 01-.8.5 1.8 1.8 0 01-.8-1.4.5.5 0 01.8-.5 1.8 1.8 0 01.8 1.4z" fill="#3e4763"/>
  <path d="M566.3 195.3h-.3a1.7 1.7 0 01-.8-1.3.4.4 0 01.4-.5h.3a1.7 1.7 0 01.8 1.3.4.4 0 01-.4.5z" fill="#7e87a8"/>
  <path fill="#3e4763" d="M624 300.4V122.7l69.9 40.4v177.7L624 300.4z"/>
  <path fill="#f3b11c" d="M688.8 335.3l-57.7-32.9.4-169 57.3 33.1v168.8z"/>
  <path fill="#f3b11c" d="M688.8 170l-57.7-32.9.4-3.7 57.3 33.1v3.5z"/>
  <path fill="#56c0dd" d="M631.5 302.2l57.3 33.1v2.7l-59.9-34.5 2.6-1.3z"/>
  <path fill="#626c8c" d="M698.6 338.1l-4.7 2.7V163.1l4.7-2.7v177.7z"/>
  <path fill="#7e87a8" d="M698.6 160.4l-4.7 2.7-69.9-40.4 4.8-2.7 69.8 40.4z"/>
  <path fill="#626c8c" d="M631.5 302.2l-2.4 1.2V132l2.4 1.4v168.8z"/>
  <path d="M680.6 256.9c0 2.2-1.6 3.1-3.5 2a7.7 7.7 0 01-3.5-6.1c0-2.2 1.6-3.1 3.5-2a7.7 7.7 0 013.5 6.1z" fill="#d42451"/>
  <path d="M682.3 255a7.7 7.7 0 00-3.5-6.1 2.5 2.5 0 00-2.5-.3l-1.4.8 5.1 8.6 1.1-.6a2.4 2.4 0 001.2-2.4z" fill="url(#d)"/>
  <path d="M681.3 255.6c0 2.2-1.6 3.1-3.5 2a7.7 7.7 0 01-3.5-6.1c0-2.2 1.6-3.1 3.5-2a7.7 7.7 0 013.5 6.1z" fill="#aab2cf"/>
  <path d="M681 255.8c0 2.2-1.6 3.1-3.5 2a7.7 7.7 0 01-3.5-6.1c0-2.2 1.6-3.1 3.5-2a7.7 7.7 0 013.5 6.1z" fill="#3e4763"/>
  <path d="M679 254.9a3.9 3.9 0 00-1.8-3.1 1.3 1.3 0 00-1.2-.1l-.8.8 2.3 3.8.9-.2a1.2 1.2 0 00.6-1.2z" fill="url(#e)"/>
  <path d="M678.2 255.2a1 1 0 01-1.6.9 3.6 3.6 0 01-1.7-2.7 1 1 0 011.7-.9 3.5 3.5 0 011.6 2.7z" fill="#aab2cf"/>
  <path d="M678 255.3a1 1 0 01-1.6.9 3.5 3.5 0 01-1.6-2.7 1 1 0 011.6-.9 3.5 3.5 0 011.6 2.7z" fill="#3e4763"/>
  <path d="M677.4 255.2a2.8 2.8 0 00-1.2-2.2.9.9 0 00-.9-.1l-2.5 1.5 1.9 3 2.3-1.4a.8.8 0 00.4-.8z" fill="url(#f)"/>
  <path d="M675.1 256.6a.8.8 0 01-1.2.7 2.8 2.8 0 01-1.2-2.2.8.8 0 011.2-.7 2.8 2.8 0 011.2 2.2zM665.2 252.6c2.4-1.4 2.2-2.5 4.6-3.9a2.1 2.1 0 00-.6-.6 1 1 0 00-.8.1l-2.5 1.4c-1.8 1-.7 2.9-.7 3z" fill="#7e87a8"/>
  <path d="M665.7 253.2l3.2-1.9c1.5-.9 1.5-3.4 0-2.6l-3.3 1.8c-1.4.9.1 2.7.1 2.7z" fill="#626c8c"/>
  <path d="M674.1 254.6l-7-4a.4.4 0 01.1-.8l1.7-1s.6-.3.2-.6a1.1 1.1 0 00-1 .2l-2 1.2a.7.7 0 00-.3 1.2 2.2 2.2 0 001 2.3c2.3 1.3 7.2 4.8 7.2 4.8l.9-.4c.6-.5.4-2.2-.8-2.9z" fill="#7e87a8"/>
  <path d="M673.3 257.6l-7.3-4.2c-1.7-1-1-3.4-.3-2.9l7.6 4.6c1.4.8 1.4 3.3 0 2.5z" fill="#3e4763"/>
  <path d="M673.2 257.4h-.5a28.4 28.4 0 01-2.7-2.2.2.2 0 01.2-.4l2.2.3.5.2a2 2 0 01.9 1.6.7.7 0 01-.6.5z" fill="#626c8c"/>
  <path d="M673.7 256.6a.5.5 0 01-.8.5 1.8 1.8 0 01-.8-1.4.5.5 0 01.8-.5 1.8 1.8 0 01.8 1.4z" fill="#3e4763"/>
  <path d="M673.2 257.1h-.3a1.7 1.7 0 01-.8-1.3.4.4 0 01.4-.5h.3a1.7 1.7 0 01.8 1.3.4.4 0 01-.4.5z" fill="#7e87a8"/>
  <path fill="#3e4763" d="M731 362.2V184.5l69.9 40.4v177.7L731 362.2z"/>
  <path fill="#f3b11c" d="M795.8 397.1l-57.7-32.9.4-169 57.3 33v168.9z"/>
  <path fill="#f3b11c" d="M795.8 231.8l-57.7-32.9.4-3.7 57.3 33v3.6z"/>
  <path fill="#56c0dd" d="M738.5 364l57.3 33.1v2.7l-59.9-34.6 2.6-1.2z"/>
  <path fill="#626c8c" d="M805.6 399.8l-4.7 2.8V224.9l4.7-2.7v177.6z"/>
  <path fill="#7e87a8" d="M805.6 222.2l-4.7 2.7-69.9-40.4 4.8-2.8 69.8 40.5z"/>
  <path fill="#626c8c" d="M738.5 364l-2.4 1.2V193.8l2.4 1.4V364z"/>
  <path d="M788 318.9c0 2.2-1.6 3.1-3.5 2a7.7 7.7 0 01-3.5-6.1c0-2.2 1.6-3.1 3.5-2a7.7 7.7 0 013.5 6.1z" fill="#d42451"/>
  <path d="M789.3 316.8a7.7 7.7 0 00-3.5-6.1 2.5 2.5 0 00-2.5-.3l-1.4.8 5.1 8.5 1.1-.6a2.4 2.4 0 001.2-2.3z" fill="url(#g)"/>
  <path d="M788.3 317.4c0 2.2-1.6 3.1-3.5 2a7.7 7.7 0 01-3.5-6.1c0-2.2 1.6-3.1 3.5-2a7.7 7.7 0 013.5 6.1z" fill="#aab2cf"/>
  <path d="M788 317.5c0 2.2-1.6 3.1-3.5 2a7.7 7.7 0 01-3.5-6.1c0-2.2 1.6-3.1 3.5-2a7.7 7.7 0 013.5 6.1z" fill="#3e4763"/>
  <path d="M786 316.7a3.9 3.9 0 00-1.8-3.1 1.3 1.3 0 00-1.2-.1l-.8.8 2.3 3.8.9-.2a1.2 1.2 0 00.6-1.2z" fill="url(#h)"/>
  <path d="M785.2 316.9a1 1 0 01-1.6.9 3.6 3.6 0 01-1.7-2.7 1 1 0 011.7-.9 3.5 3.5 0 011.6 2.7z" fill="#aab2cf"/>
  <path d="M785 317.1a1 1 0 01-1.6.9 3.5 3.5 0 01-1.6-2.7 1 1 0 011.6-.9 3.5 3.5 0 011.6 2.7z" fill="#3e4763"/>
  <path d="M784.4 317a2.8 2.8 0 00-1.2-2.2.9.9 0 00-.9-.1l-2.5 1.5 1.9 3 2.3-1.4a.8.8 0 00.4-.8z" fill="url(#i)"/>
  <path d="M782.1 318.4a.8.8 0 01-1.2.7 2.8 2.8 0 01-1.2-2.2.8.8 0 011.2-.7 2.8 2.8 0 011.2 2.2zM772.2 314.3c2.4-1.4 2.2-2.5 4.6-3.9a2.1 2.1 0 00-.6-.6 1 1 0 00-.8.1l-2.5 1.4c-1.8 1.1-.7 3-.7 3z" fill="#7e87a8"/>
  <path d="M772.7 315l3.2-1.9c1.5-.9 1.5-3.4 0-2.6l-3.3 1.8c-1.4.9.1 2.7.1 2.7z" fill="#626c8c"/>
  <path d="M781.1 316.4l-7-4a.4.4 0 01.1-.8l1.7-1s.6-.3.2-.6a1.1 1.1 0 00-1 .2l-2 1.2a.7.7 0 00-.3 1.2 2.2 2.2 0 001 2.3c2.3 1.3 7.2 4.8 7.2 4.8l.9-.4c.6-.6.4-2.3-.8-2.9z" fill="#7e87a8"/>
  <path d="M780.3 319.4l-7.3-4.2c-1.7-1-1-3.4-.3-2.9l7.6 4.6c1.4.8 1.4 3.3 0 2.5z" fill="#3e4763"/>
  <path d="M780.2 319.2h-.5a28.4 28.4 0 01-2.7-2.2.2.2 0 01.2-.4l2.2.3.5.2a2 2 0 01.9 1.6.7.7 0 01-.6.5z" fill="#626c8c"/>
  <path d="M780.7 318.4a.5.5 0 01-.8.5 1.8 1.8 0 01-.8-1.4.5.5 0 01.8-.5 1.8 1.8 0 01.8 1.4z" fill="#3e4763"/>
  <path d="M780.2 318.9h-.3a1.7 1.7 0 01-.8-1.3.4.4 0 01.4-.5h.3a1.7 1.7 0 01.8 1.3.4.4 0 01-.4.5z" fill="#7e87a8"/>
  <ellipse cx="415.5" cy="459.1" rx="29.8" ry="11.3" fill="#0ca1dc"/>
  <path d="M396.1 349.4l6.1-15.1 3-6.5a7.2 7.2 0 013.2-3.5 4.6 4.6 0 014.5.2c1.1.9 1.1 3.3.4 5.1l-3 7.5-4.8 13-.6 1.1c.4 1.8 2.9 13.1 4.1 16.6l1.5 5.2a6.5 6.5 0 01-2.8 1.8 26.1 26.1 0 01-4.2.7 160.7 160.7 0 01-6.8-19.7l-1-4.2a4.8 4.8 0 01.4-2.2z" fill="#066e8a"/>
  <path d="M406.7 373.4c-2.4.8-2.4 1.4-2.4 1.4a9.2 9.2 0 00.3 1.3c.4.4 5.7-1.5 5.3-2.3a1.2 1.2 0 00-.5-.8c-.4-.3-1.3-.1-2.7.4z" fill="#e4e4e4"/>
  <path d="M413.5 382a16.7 16.7 0 01-.9-3.6l1.2 1c.8 1.1 1.2 1.2 1.9 1.2s0-.7-.6-1.9a9.1 9.1 0 00-1.3-2l-1.2-.8c-1.2-.8-2.4-1-3-2.1l-.2-.5c-.1-.2-4.8 1.2-4.4 1.7s.6 1.8.6 2.5.7 2.2 1.7 4.4c.3.7 1.6 3 2.5 3.4a9.4 9.4 0 002.9.8c1 0 1.3-2.3.8-4.1z" fill="#f9d0b7"/>
  <path d="M406.6 373.1c-2.4.8-2.7 1.5-2.7 1.5l.8 1.5a11.9 11.9 0 015.3-2.3l-.4-1.2c-.2-.4-1.6 0-3 .5z" fill="#f3f5fb"/>
  <path d="M430.4 461.2c2.3-1.4 2.9-2.1 6.3-3.1 1-.3 4.9-1.6 6.4-.1s-.7 3.5-1.5 4c-2.5 1.6-4.7 2-7.4 3-.5.2-1.4 1.3-2.6 1.6s-4.4 1.1-6.3-.3a2.3 2.3 0 01.4-4.1c1-.4 2.9.2 4.7-1z" fill="#2a2f42"/>
  <path d="M424.4 463.3l.6-4.8c0-.8 1.2-1.2 1.9-1.5a41.4 41.4 0 014.1-1.7c1.1-.4 2.3 1.6 5.7.7 1-.3 4.4-1 6.1.3a1.3 1.3 0 01.5 1h.1v.6c.1.9 0 1.8-2 3.1s-4.7 2-7.4 3a41.2 41.2 0 01-4.5 1.6 4.6 4.6 0 01-4.3-.9 1.7 1.7 0 01-.9-1.4z" fill="#7e87a8"/>
  <path d="M443 456.2a3 3 0 01-.3 3.9 10 10 0 01-1.6 1.1 5.6 5.6 0 00-1.5-3.9 7 7 0 00-2.5-1.5c1.3-.3 4.6-1.3 5.9.4zM436.4 457.1c1 1.4.7 3.5-.4 3.8-3.7 1.1-2.1 3.2-2.1 3.2s-5.8 3.3-8.5.8a2.6 2.6 0 01-1-1.7 24.1 24.1 0 01.7-4.9c.3-1.1 6-3 6-3s4 .1 5.3 1.8z" fill="#3e4763"/>
  <path d="M401.3 452.9c2.3-1.3 3-2 6.5-2.7 1-.2 5.3-1.6 6.3.3s-.9 3.5-1.7 3.9c-3 1.4-4.8 1.6-7.7 2.8a19.3 19.3 0 01-2.6 1.3c-2.2.7-4.7 1.2-6.4-.5s-.1-4.2-.1-4.2 3.8.1 5.7-.9z" fill="#2a2f42"/>
  <path d="M395.7 454.5l1.4-4.8a22.3 22.3 0 015-2.6c1.2-.3 2.2 1.7 5.7 1 1-.2 4.4-.7 6 .7a1.3 1.3 0 01.5 1h.1a5.6 5.6 0 01.1.6c0 .9-.1 1.8-2.1 3s-4.8 1.7-7.6 2.6a41.2 41.2 0 01-4.6 1.3 4.6 4.6 0 01-4.2-1.3 1.4 1.4 0 01-.3-1.5z" fill="#7e87a8"/>
  <path d="M414 448.7a2.7 2.7 0 01-.5 3.8l-1.6 1a5.6 5.6 0 00-1.3-4 7 7 0 00-2.4-1.6c1.4-.3 4.4-1 5.8.8zM407.4 449.1c.9 1.4.6 3.5-.6 3.8-3.8.9-2.3 3.1-2.3 3.1s-6 3-8.5.3a1.9 1.9 0 01-.6-1.5 26.1 26.1 0 011.4-5.2c.3-1.1 5.4-2.6 5.4-2.6s4 .3 5.2 2.1z" fill="#3e4763"/>
  <path d="M395.8 452.2c.2-1.2 2.1-7.9 2.2-10.4.3-5.4.6-12.7 1.9-17.9a175 175 0 015-13.6 120.2 120.2 0 001.8-19.4c.1-5.1-.3-6.6-.5-10.6s.9-7.7 1.8-9 3.9-.6 5.4-.4 7.5 2.9 7.8 6.1c.4 5.2.9 6.2.4 13.5a95.2 95.2 0 01-6.4 27 58.1 58.1 0 00-3.1 7.8c-.9 3.2-2.2 8.7-2.9 12.2-1 5 .1 7.3-.1 13.6 0 .7-4.5 3.7-7.6 3.9-4.7.2-5.8-2.2-5.7-2.8z" fill="#066e8a"/>
  <path d="M414.7 374.6s14.8 1.5 17 2.6c.6.3 2.5 11.1 2.7 13.6a183.7 183.7 0 01.2 20.8l-.2 3.1c.1 8.2-1 16.9.3 29.2.5 4.7 1.6 6.9 2.9 14.2 0 0-.3 2.6-6.7 4.4s-6.8-2.1-6.8-2.1a58.8 58.8 0 00-.3-14.9c-1.1-6.1-2.3-11.2-2.4-15.4-.1-2.1.7-10.9 1-13.8-.9-6.3-2.2-17.1-2.8-19.7a56.5 56.5 0 00-3.4-11.3l-.8-1.6c-1.3-2.5-.7-9.1-.7-9.1z" fill="#066e8a"/>
  <path d="M407.8 362.2c.2-4.4.6-6-1-16.7-.8-5.6-2.2-15.2-1-17.7a8.8 8.8 0 012.6-3.3 3.7 3.7 0 012.5-.7c1 0 2.4.9 3.2 1.2 2.4 1 6.9 3.2 9.2 4.5s9 5.2 11.5 6.8c1 .6 1.3.7 1.4 1.5v.4h-.1c-.7 4.9-2 16.2-2.5 21.4-.2 1.5-.2 6.2-.1 10.6s.6 12.7.6 12.7a26.7 26.7 0 01-9.4 2.2 35.8 35.8 0 01-11.6-1.1 31 31 0 01-7.1-3.3s.1-6.7.7-11.5c.2-.6 1-5.3 1.1-7z" fill="#066e8a"/>
  <path d="M416.2 328.5l.2-4.9 8.4.5-1.1 5.8a1.8 1.8 0 01-1.1 1.4 5.6 5.6 0 01-5.1-.3 4.2 4.2 0 01-1.3-2.5z" fill="#f9d0b7"/>
  <path d="M410.2 314.1c.1 5.4 7.3 14 12.1 11.5 3.1-1.6 7.7.3 7.5-2.5a10 10 0 01.8-3.3c.3-.7-.1-1 .1-1.7s1.1-.5 1.1-1.3-1.8-3.3-2-3.7.8-1.7.6-2c-1.9-3.5-2.6-6.2-6.5-6.1s-13.8 3.8-13.7 9.1z" fill="#f9d0b7"/>
  <path d="M411.1 310.6c2.8-3.3 8.8-5.4 12.7-5.5s3.7 1 4.8 2.9l-.3.6-.7.4h.5l-.4.6a11.9 11.9 0 01-8 3.6c-4.7 0-8.4-.7-8.6-2.6z" fill="#eac3aa"/>
  <path d="M411.2 308.6a8.2 8.2 0 017.4-4.3c4.9-.1 6.8-.6 8-.3 3.4.7 2.7 3 1.6 4.4l-1.4.9.8-.2-1 .9-.6.5h.2c1.4 1-1.2 2.8-.1 3.9s-.5 3.5-.5 3.5-.8-3.2-1.9-2.8-1.2 4.1-1.7 5.4c-1.9 5.1-5.1 4.4-6.3 3.7a12.2 12.2 0 01-6.1-9.9 8.8 8.8 0 011.6-5.7z" fill="#333b52"/>
  <path d="M420.1 360.1c1.3-4.1 4.2-9.5 5.4-12.9a56.8 56.8 0 013-7c1.2-1.9 2.2-3.1 3.5-3.5s2.7-.5 3.8.3a5.6 5.6 0 011.4 5.7c-.8 2.5-1.6 4.2-2.7 7.4-2 5.3-3.7 9.1-4.9 12.3l-.3.6.2.6 6.9 17.7a2.3 2.3 0 01.3.8.7.7 0 01-.3.5c-.6.5-1.3.7-2.7 1.5a10.7 10.7 0 01-2.7 1.1l-.8.3a1.1 1.1 0 01-.5-.6c-1.5-3.2-8.1-16.6-9.5-20.2s-.1-4.6-.1-4.6z" fill="#066e8a"/>
  <path d="M433.4 383.2c-2.3 1.2-2.2 1.7-2.2 1.7a8.5 8.5 0 01.6 1.3c.7.3 5.3-2.2 4.9-3a2.4 2.4 0 00-.6-.8c-.2-.4-1.4.1-2.7.8z" fill="#e4e4e4"/>
  <path d="M438.9 389.1a9.1 9.1 0 00-.9-3 8.5 8.5 0 01-1.8-2.5l-.5-.9c-.1-.2-4.7 2.1-4.2 2.6s.9 1.5 1.5 3.3a7.7 7.7 0 01.7 2.5c-.2 1.3-.3 1.7.2 1.9s.4-.4.6-.9l.2-.9v-1.8a6.1 6.1 0 01.2 1.8l-.2 1c0 .4-.5 1.3 0 1.7s.9-1.2 1.1-1.9l.2-.8v-2a8.7 8.7 0 01.1 2l-.3 1.1c-.2.5-.6 2-.1 2.3s.9-.9 1.2-1.7l.4-1.2.2-2.6a11.7 11.7 0 010 2.7l-.4 1.1c-.3 1-.3 1.2-.1 1.4s.6.2 1.1-1l.5-1.3a14.3 14.3 0 00.3-2.9z" fill="#f9d0b7"/>
  <path d="M433.2 383c-2.3 1.2-2.4 2-2.4 2l.9 1.2a11.9 11.9 0 014.9-3l-.5-1.2c-.1-.3-1.5.3-2.9 1z" fill="#f3f5fb"/>
  <path d="M422.1 331a3.5 3.5 0 002.3-.7l-.2-2.4a12.1 12.1 0 01-4.2-.1c-3.5-.8-3.6-2.3-3.6-2.3l-1.2 3.1c0 .5 1.6 1.2 2.7 1.7a10.1 10.1 0 004.2.7z" fill="#f6f7fb"/>
  <path d="M422.1 332.3a20.3 20.3 0 004.4-.6l.7.2a3.5 3.5 0 00-.5-.8l-2.4-1.8a11.4 11.4 0 01-4.4.1c-3.5-.8-4.1-2.6-4.1-2.6l-1.8 1.1c0 .7.6 2.2 2.6 3.4a9 9 0 005.5 1z" fill="#066e8a"/>
</svg>
