<svg xmlns="http://www.w3.org/2000/svg" viewBox="0 0 1124 630">
  <defs>
    <linearGradient id="a" x1="-103.1" y1="-18.5" x2="-35.1" y2="-94.3" gradientTransform="rotate(-2 5777 -18578.5)" gradientUnits="userSpaceOnUse">
      <stop offset=".1" stop-color="#35495e"/>
      <stop offset=".4" stop-color="#374b60"/>
      <stop offset=".6" stop-color="#3e5365"/>
      <stop offset=".7" stop-color="#4a616f"/>
      <stop offset=".8" stop-color="#5c757d"/>
      <stop offset=".9" stop-color="#728e8e"/>
      <stop offset="1" stop-color="#8daca4"/>
      <stop offset="1" stop-color="#9abbae"/>
    </linearGradient>
    <clipPath id="b">
      <path fill="none" d="M497.5 91.6h230.7v295.6H497.5z"/>
    </clipPath>
  </defs>
  <path fill="#25606b" d="M0 0h1124v630H0z"/>
  <path fill="#6fccdd" d="M497.5 91.6h230.7v295.6H497.5z"/>
  <path d="M582 134.8a36 36 0 001.2 7.3c.3.9 1.3 2 1.3 2.4s-.6.4-.7.8.4 5.4 0 6.2-5.4.1-6.2 1.5.8 7.8.8 7.8l-4.8 3.8-3-9.7 2.7-14.9zM557 207.4l13.4 12.3-.6 2.9-15.8-11.4 3-3.8z" fill="#dfdad3"/>
  <path d="M570.5 224.8s-.9.4-.5-3-1-7.9-1.4-16.9c-.7-15.3-6.1-36.1-4.5-38.8s9-5.8 9-5.8l5.1-.2s4.8 7.3 6.8 9.6 4.9 7.1 5 9.4c.2 5.1-2.7 4.8-3 6.6-2.8 16.3 2 28.1 3.6 34.4a46.1 46.1 0 011.3 7.2l-8 .7z" fill="#fff"/>
  <path d="M583.8 382.6a4.3 4.3 0 000 2.5 3.2 3.2 0 010 2.1h2.5v-1l7.6 1h4s-.1-.8-1.7-1.4a10.9 10.9 0 00-3.1-.7v.8a16 16 0 01-4.8-.9 12.1 12.1 0 01-4.5-2.4z" fill="#22313f"/>
  <path d="M572.3 382.6a4.3 4.3 0 000 2.5 3.2 3.2 0 010 2.1h2.5v-1l7.6 1h4s-.1-.8-1.7-1.4a10.9 10.9 0 00-3.1-.7v.8a16 16 0 01-4.8-.9 12.1 12.1 0 01-4.5-2.4z" fill="#22313f"/>
  <path d="M564.1 166.1s-25.9 35.2-25.2 36.8 14.9 8.7 14.9 8.7l3.3-4.1-4.7-6.6 12.8-21.1z" fill="#fff"/>
  <path fill="#c3c9cc" d="M553.8 211.5l5.2-5.2-1.7-3.3-4.8 8.5h1.3z"/>
  <path d="M582.4 134.1s-3.4-4.7-10.7-4.4-9.8 5.2-9.7 9.7c.3 7.2-1.1 8.7-3.3 11s-4.8 6.5-4.5 10.5a17.5 17.5 0 0010.5 5.8c7.2 1 17.1-5.6 16.3-7.3s-9.3-4.8-4.8-8.6 2.5-12.7 2.5-12.7a6.2 6.2 0 002.9-1.8 3.6 3.6 0 00.8-2.2z" fill="url(#a)"/>
  <path d="M581.3 174.8s31.8-20.9 31.6-23.4-21.6-9.1-21.6-9.1l-2.6 4.4 11.5 3.6s-21.7 15.2-22.1 15.9.8 5.1.5 8.1 1.6 1.6 2.7.5z" fill="#fff"/>
  <path fill="#dfdad3" d="M589.9 142l-15.4-3.4-2.4 3.4 16.6 4.7 1.2-4.7z"/>
  <path d="M571.7 142.4a12.9 12.9 0 01-3.7.7c-1.3-.1-4.2-.3-3.8-1s3.6-.5 3.6-.5a9.2 9.2 0 01-3-1.3c-1.2-.8-2.6-1.3-2.4-1.9s.1-.3 1.2-.5-.5-1.4 1-1.3-.3-1.3 1.8-.7.5-1 1.8-.4 4 2.4 4 2.4l3.6 1.1-1.8 3.6h-2.3z" fill="#dfdad3"/>
  <path fill="#c3c9cc" d="M589.9 140l3.7 1.2-4.9 5.5-1.4.1 2.6-6.8z"/>
  <path d="M570.4 225.9v-1.1s11.5 2.1 12.7 2.1l8.7.4v1.1a42.5 42.5 0 01-8.8.1z" fill="#25606b"/>
  <path d="M587.2 377.3l.8-13.8v-6.7l.2-3.6v-10.1l1.1-32.5a114 114 0 005.3-32.7 315.4 315.4 0 000-34.2 87.8 87.8 0 00-3.6-15l-13.3-1.7-8.1-.9s-2.7 12.4-1.7 22.4a101.8 101.8 0 001.6 10.8l.2 35.7c0 6.6.5 12.3.9 16.3-1.6 4.9-2.3 14.8-.9 34.2v5.9l1.2 26.9.2 4 3.2 3 6.4 1.2-.3-1.6s-5.3-2-6-3.6l.2-3 .5-6.7v-.7c.6-8.2 1.5-19.6 2-28.3v-.4c.6-9.9 2.1-25.2 2.8-32.5l.3 2.7a52.3 52.3 0 00-1.1 11.9c0 5 .3 11.4 1 19.7v12.8l1.2 19.6.3 5.3 3.2 3 6.4 1.1-.4-1.6s-5.3-1.9-6-3.5 0-1.7.2-4.3z" fill="#25606b"/>
  <path fill="#ccc" d="M572.3 387.2h-74.8L255.3 629.5l73.1-.3 243.9-242zM597.9 387.2l-242 242 130.8-.4 241.6-241.6H597.9z"/>
  <g clip-path="url(#b)" fill="#fff">
    <path d="M885.8 280.1a8.6 8.6 0 00-5 1.6 10.1 10.1 0 00-8.4-3.4l-2.1.4a14.9 14.9 0 00-13.5-8.6h-.1a10.2 10.2 0 00.1-1.1 10.1 10.1 0 00-10.1-10.1h-.7a16.2 16.2 0 00-21.7-10.6 14.3 14.3 0 00-26-3.9 21.8 21.8 0 00-13.9 5.9 20 20 0 00-24.5-10.3 14.9 14.9 0 00-24.3-7.8 22.7 22.7 0 00-39.3 10.4 10.1 10.1 0 00-13.5 12.4 21.9 21.9 0 00-6.6 5h-.8a10.1 10.1 0 00-10.1 9.2 14.3 14.3 0 00-8.7 4.7 10.1 10.1 0 00-11.1 2.7l-2.2-.3a8.6 8.6 0 104.8 15.9 10.1 10.1 0 008.5.6 14.3 14.3 0 0013.9 4.5 10.1 10.1 0 0015.4-1.7 22 22 0 0011 .5 21.8 21.8 0 0028.2-2.7 21.9 21.9 0 0032-.7 21.8 21.8 0 0030.5 2 21.9 21.9 0 0019.7 1 21.9 21.9 0 0018.3 1.4 16.2 16.2 0 0017.1 0 14.3 14.3 0 003.9.5l2.2-.2a14.9 14.9 0 0014.1 1.1h.2a10.1 10.1 0 005.1-1.4 10.1 10.1 0 0012.3-1.7 8.6 8.6 0 105.3-15.3zM530.2 114.8a8.6 8.6 0 00-5 1.6 10.1 10.1 0 00-8.4-3.4l-2.1.4a14.9 14.9 0 00-13.5-8.6h-.1a10.2 10.2 0 00.1-1.1 10.1 10.1 0 00-10.1-10.1h-.8A16.2 16.2 0 00468.6 83a14.3 14.3 0 00-26-3.9 21.8 21.8 0 00-13.9 5.9 20 20 0 00-24.5-10.3 14.9 14.9 0 00-24.3-7.7 22.7 22.7 0 00-39.3 10.4 10.1 10.1 0 00-13.5 12.4 21.9 21.9 0 00-6.6 5h-.8a10.1 10.1 0 00-10.1 9.2 14.3 14.3 0 00-8.7 4.7 10.1 10.1 0 00-11.1 2.7l-2.2-.3a8.6 8.6 0 104.8 15.9 10.1 10.1 0 008.5.6 14.3 14.3 0 0013.9 4.5 10.1 10.1 0 0015.4-1.7 22 22 0 0011 .5 21.8 21.8 0 0028.2-2.7 21.9 21.9 0 0032-.7 21.8 21.8 0 0030.5 2 21.9 21.9 0 0019.7 1 21.9 21.9 0 0018.3 1.4 16.2 16.2 0 0017.1 0 14.3 14.3 0 003.9.5l2.2-.2a14.9 14.9 0 0014.1 1.1h.2a10.1 10.1 0 005.1-1.4 10.1 10.1 0 0012.3-1.7 8.6 8.6 0 105.4-15.4z"/>
  </g>
</svg>
