<?xml version="1.0" encoding="UTF-8"?>
<svg width="1124px" height="630px" viewBox="0 0 1124 630" version="1.1" xmlns="http://www.w3.org/2000/svg" xmlns:xlink="http://www.w3.org/1999/xlink">
    <!-- Generator: Sketch 51.3 (57544) - http://www.bohemiancoding.com/sketch -->
    <title>Artboard</title>
    <desc>Created with Sketch.</desc>
    <defs>
        <linearGradient x1="23.9740576%" y1="46.0435022%" x2="68.7734425%" y2="55.5980653%" id="linearGradient-1">
            <stop stop-color="#919191" offset="0%"></stop>
            <stop stop-color="#FFFFFF" offset="100%"></stop>
        </linearGradient>
        <linearGradient x1="26.4558875%" y1="42.3993362%" x2="67.1938916%" y2="51.9232411%" id="linearGradient-2">
            <stop stop-color="#990000" offset="0%"></stop>
            <stop stop-color="#E80000" offset="100%"></stop>
        </linearGradient>
    </defs>
    <g id="Artboard" stroke="none" stroke-width="1" fill="none" fill-rule="evenodd">
        <g id="Group" transform="translate(114.000000, 30.000000)">
            <g id="jekyll-test-tube" fill-rule="nonzero">
                <g id="logo-bg-light" transform="translate(156.697266, 56.677734)">
                    <g id="test-tube_1_">
                        <path d="M142.272227,9.05843555 C142.067742,9.87748438 142.063297,10.7576563 142.235553,11.6867266 C142.235553,11.6867266 145.021652,30.1814492 141.858813,38.4119453 L7.38255273,388.072447 L7.39255469,388.076893 C-2.204875,413.759686 10.6565254,442.433063 36.3026445,452.297211 C61.9487637,462.160248 90.7077129,449.492219 100.793016,423.998352 L100.80524,424.003908 L235.2815,74.3422949 C237.910902,67.5020703 252.907164,54.2505938 252.907164,54.2505938 C253.659533,53.6771484 254.24298,53.0192422 254.640836,52.2746523 L254.706404,52.1390703 C254.778641,51.992375 254.863102,51.8523477 254.920891,51.7000957 C258.388234,42.6838906 236.022756,25.6894609 204.964469,13.7460176 C173.90507,1.80146289 145.916271,-0.572333984 142.448928,8.44387109 C142.390027,8.59612305 142.356688,8.7561543 142.313346,8.91285156 L142.272227,9.05843555 Z" id="shadow_1_" fill="#000000" opacity="0.1"></path>
                        <path d="M138.385912,6.08674414 C138.180316,6.90579297 138.17476,7.78596484 138.349238,8.71503516 C138.349238,8.71503516 141.136449,27.2097578 137.971387,35.4402539 L3.49401563,385.099645 L3.50624023,385.10409 C-6.09007812,410.786883 6.77021094,439.46026 32.4163301,449.324408 C58.0602266,459.187445 86.8213984,446.519416 96.9067012,421.025549 L96.9189258,421.031105 L231.395186,71.3694922 C234.023477,64.5292676 249.02085,51.277791 249.02085,51.277791 C249.773219,50.7043457 250.356666,50.0475508 250.754521,49.3018496 L250.818979,49.1662676 C250.891215,49.0206836 250.975676,48.8795449 251.033465,48.727293 C254.500809,39.7110879 232.13533,22.7177695 201.078154,10.7732148 C170.018756,-1.17133984 142.029957,-3.54513672 138.562613,5.47106836 C138.503713,5.62332031 138.470373,5.78335156 138.427031,5.94004883 L138.385912,6.08674414 Z" id="tube_1_" fill="url(#linearGradient-1)"></path>
                        <path d="M180.568594,164.269855 L83.5918789,416.425762 L83.6552246,416.4491 C76.5027168,434.521518 55.687541,443.924465 37.2228242,436.823078 C18.7581074,429.721691 8.76393359,408.470875 15.5652617,390.261764 L77.5306953,229.139189 C77.5306953,229.139189 85.2699844,216.655641 100.465174,207.773906 C115.660363,198.893283 128.191699,200.766982 145.064994,193.26774 C161.937178,185.768498 180.568594,164.269855 180.568594,164.269855 Z" id="liquid_1_" fill="url(#linearGradient-2)"></path>
                        <ellipse id="top_1_" fill="#333333" transform="translate(194.463684, 28.022520) rotate(21.037511) translate(-194.463684, -28.022520) " cx="194.463684" cy="28.0225203" rx="37.396148" ry="9.83582709"></ellipse>
                        <path d="M138.348127,8.71392383 C138.348127,8.71392383 141.094219,27.3142227 137.970275,35.4391426 L3.49401563,385.099645 L3.50624023,385.10409 C-6.09007813,410.786883 6.77021094,439.46026 32.4163301,449.324408 C36.8671992,451.035854 41.4091973,452.052719 45.9345254,452.460576 C28.6467051,439.455814 21.2297012,416.195717 29.16125,394.971572 L29.1490254,394.967127 L160.956986,52.2424238 C160.956986,52.2424238 143.015705,35.3958008 138.348127,8.71392383 Z" id="side-reflection_1_" fill="#FFFFFF" opacity="0.3"></path>
                        <g id="bubbles_1_" transform="translate(57.789063, 230.044922)" fill="#FFFFFF" opacity="0.5">
                            <circle id="Oval" cx="37.2639434" cy="4.22971484" r="3.89631641"></circle>
                            <circle id="Oval" cx="62.8055977" cy="32.4807871" r="5.87336914"></circle>
                            <circle id="Oval" cx="23.8146504" cy="66.078459" r="11.0188184"></circle>
                            <circle id="Oval" cx="5.97338867" cy="86.4557715" r="5.87448047"></circle>
                            <circle id="Oval" cx="29.3724023" cy="130.034281" r="3.89631641"></circle>
                        </g>
                    </g>
                </g>
            </g>
            <g id="gatsbyjs-icon" transform="translate(529.000000, 118.000000)" fill-rule="nonzero">
                <path d="M298.215031,166.5 L214.715031,166.5 L214.715031,190.278281 L271.964719,190.278281 C263.614719,225.956109 237.364406,255.681563 202.77975,267.581109 L65.5996875,130.822172 C79.9147187,89.1971719 120.469625,59.4665156 167,59.4665156 C202.784969,59.4665156 235.000312,77.3132344 255.269937,104.660859 L273.17025,89.2075781 C249.299687,57.0782813 211.134969,35.6778281 167,35.6778281 C104.969937,35.6778281 52.4849687,79.6806563 39.3650312,137.955656 L196.814719,294.933938 C254.064406,280.661766 298.215031,228.333938 298.215031,166.489594 L298.215031,166.5 Z M35.7849687,167.696719 C35.7849687,200.996719 48.9049062,233.1 73.9549062,258.075 C99.0049062,283.05 132.404906,296.130656 164.604594,296.130656 L35.7849687,167.696719 Z" id="Shape" fill="#FFFFFF"></path>
                <path d="M167,0 C75.15,0 0,74.925 0,166.5 C0,258.075 75.15,333 167,333 C258.85,333 334,258.075 334,166.5 C334,74.925 258.85,0 167,0 Z M73.9496875,259.271719 C48.8996875,234.296719 35.77975,200.996719 35.77975,168.893438 L165.799687,297.322172 C132.399687,296.125453 98.9996875,284.241516 73.9496875,259.266516 L73.9496875,259.271719 Z M195.619625,293.768438 L39.3650312,137.955656 C52.4849687,79.6806563 104.969937,35.6778281 167,35.6778281 C211.134969,35.6778281 249.299687,57.0834844 273.165031,89.1971719 L255.264719,104.650453 C235.000312,77.3028281 202.784969,59.4717188 167,59.4717188 C120.480062,59.4717188 81.1150312,89.202375 65.5996875,130.827375 L202.784969,267.596719 C237.385281,255.702375 263.619937,225.971719 271.969937,190.293891 L214.72025,190.293891 L214.72025,166.5 L298.22025,166.5 C298.22025,228.344344 254.085281,280.672172 195.635281,293.752828 L195.619625,293.768438 Z" id="Shape" fill="#663399"></path>
            </g>
            <polygon id="Triangle" fill="#D8D8D8" points="480 301 410 336 410 266"></polygon>
        </g>
    </g>
</svg>